<?xml version="1.0" encoding="utf-8"?>
<!-- Generator: Adobe Illustrator 27.2.0, SVG Export Plug-In . SVG Version: 6.00 Build 0)  -->
<svg version="1.1" id="Layer_1" xmlns="http://www.w3.org/2000/svg" xmlns:xlink="http://www.w3.org/1999/xlink" x="0px" y="0px"
	 viewBox="0 0 512 512" style="enable-background:new 0 0 512 512;" xml:space="preserve">
<style type="text/css">
	.st0{fill:#212121;}
</style>
<g>
	<path class="st0" d="M486.4,51.2c13.13,0,23.95,9.88,25.43,22.61L512,76.8v166.4c0,47.84-37.49,86.91-84.69,89.47l-4.91,0.13H87.42
		l84.28,84.3c9.23,9.23,9.94,23.75,2.13,33.79l-2.13,2.41c-9.23,9.23-23.75,9.94-33.79,2.13l-2.41-2.13l-128-128l-2.47-2.86
		l-1.83-2.85l-1.37-2.89l-0.91-2.7L0.28,311l-0.18-1.5L0,307.2l0.07-1.93l0.45-3.21l0.76-2.85l1.12-2.84l1.34-2.5l1.63-2.36
		l2.13-2.41l128-128c10-10,26.21-10,36.2,0c9.23,9.23,9.94,23.75,2.13,33.79l-2.13,2.41l-84.28,84.3H422.4
		c19.96,0,36.36-15.23,38.22-34.7l0.18-3.7V76.8C460.8,62.66,472.26,51.2,486.4,51.2z"/>
</g>
</svg>
